<svg xmlns="http://www.w3.org/2000/svg" id="Layer_1" data-name="Layer 1" viewBox="0 0 24 24" width="300" height="300" version="1.1" xmlns:xlink="http://www.w3.org/1999/xlink" xmlns:svgjs="http://svgjs.dev/svgjs"><g width="100%" height="100%" transform="matrix(1,0,0,1,0,0)"><path d="M9,5c0-1.657,1.343-3,3-3s3,1.343,3,3-1.343,3-3,3-3-1.343-3-3Zm10,1c1.657,0,3-1.343,3-3s-1.343-3-3-3-3,1.343-3,3,1.343,3,3,3Zm-14,0c1.657,0,3-1.343,3-3S6.657,0,5,0,2,1.343,2,3s1.343,3,3,3Zm12,7.5v2c0,1.325-.586,2.505-1.5,3.33v3.67c0,.829-.671,1.5-1.5,1.5s-1.5-.671-1.5-1.5v-2.5h-1v2.5c0,.829-.671,1.5-1.5,1.5s-1.5-.671-1.5-1.5v-3.67c-.914-.824-1.5-2.005-1.5-3.33v-2c0-2.481,2.019-4.5,4.5-4.5h1c2.481,0,4.5,2.019,4.5,4.5Zm-3,0c0-.827-.673-1.5-1.5-1.5h-1c-.827,0-1.5,.673-1.5,1.5v2c0,.827,.673,1.5,1.5,1.5h1c.827,0,1.5-.673,1.5-1.5v-2Zm5.5-6.5h-1c-.829,0-1.5,.671-1.5,1.5s.671,1.5,1.5,1.5h1c.827,0,1.5,.673,1.5,1.5v2c0,.635-.402,1.204-1,1.415-.6,.212-1,.779-1,1.415v4.171c0,.829,.671,1.5,1.5,1.5s1.5-.671,1.5-1.5v-3.258c1.228-.822,2-2.219,2-3.742v-2c0-2.481-2.019-4.5-4.5-4.5Zm-14,0h-1C2.019,7,0,9.019,0,11.5v2c0,1.523,.772,2.92,2,3.742v3.258c0,.829,.671,1.5,1.5,1.5s1.5-.671,1.5-1.5v-4.171c0-.636-.401-1.203-1-1.415-.598-.211-1-.78-1-1.415v-2c0-.827,.673-1.5,1.5-1.5h1c.829,0,1.5-.671,1.5-1.5s-.671-1.5-1.5-1.5Z" fill="#d4af37" fill-opacity="1" data-original-color="#000000ff" stroke="none" stroke-opacity="1"/></g></svg>